<svg xmlns="http://www.w3.org/2000/svg" viewBox="0 0 1182.31 106.66"><g id="Layer_2" data-name="Layer 2"><g id="Layer_1-2" data-name="Layer 1"><path d="M294.61,26.45a3.36,3.36,0,0,1-4.08-.84c-4.28-4.9-12.74-9.08-22.3-9.08-14.09,0-20.84,5.9-20.84,13.37,0,8.77,10.35,11.21,22.42,12.65,21,2.59,40.54,8.05,40.54,32.06,0,22.42-19.84,32.05-42.26,32.05-19.36,0-34.51-5.6-42.45-21.62a3.41,3.41,0,0,1,1.46-4.58L237,75.34a3.41,3.41,0,0,1,4.52,1.34c5.2,9,15.81,13,26.88,13,11.94,0,23.15-4.17,23.15-15.09,0-9.49-9.92-13.37-23.29-14.81-20.55-2.44-39.53-7.9-39.53-30.48,0-20.7,20.41-29.18,39-29.32,14.52,0,29.55,3.83,37.73,16.76a3.4,3.4,0,0,1-1.33,4.83Z"/><path d="M457.6,20.7H432.48a3.4,3.4,0,0,1-3.39-3.4V6.85a3.4,3.4,0,0,1,3.39-3.4h76a3.4,3.4,0,0,1,3.4,3.4V17.3a3.4,3.4,0,0,1-3.4,3.4H483.37a3.4,3.4,0,0,0-3.4,3.4v76.58a3.4,3.4,0,0,1-3.39,3.4H464.4a3.4,3.4,0,0,1-3.4-3.4V24.1A3.4,3.4,0,0,0,457.6,20.7Z"/><path d="M732.07,88.92a3.39,3.39,0,0,1-.16,4.94c-9.94,8.53-22.29,12.52-35.6,12.52-37.38,0-53.19-25.73-53.33-51.9s17-53,53.33-53A51.62,51.62,0,0,1,730.5,14.27a3.42,3.42,0,0,1,.17,5.05l-7.81,7.54a3.42,3.42,0,0,1-4.54.15,35.11,35.11,0,0,0-22-7.46c-24.29,0-34.79,18.11-34.64,34.93s9.77,34.07,34.64,34.07a37.6,37.6,0,0,0,23.05-8.17,3.38,3.38,0,0,1,4.53.27Z"/><path d="M1178.91,3.59a3.41,3.41,0,0,1,3.4,3.41V61.24c0,29.76-18.25,45-43.55,45-24.15,0-44.71-14.66-44.71-45V7a3.41,3.41,0,0,1,3.4-3.41h12a3.41,3.41,0,0,1,3.4,3.41V61.24c0,18.11,10.35,27.74,26,27.74s24.58-10.49,24.58-27.74V7a3.41,3.41,0,0,1,3.41-3.41Z"/><rect y="3.59" width="18.98" height="33.76" rx="3.4"/><path d="M68.43,7V42.6A3.41,3.41,0,0,1,65,46H3.4A3.4,3.4,0,0,0,0,49.4v51.42a3.4,3.4,0,0,0,3.4,3.4H15.57a3.41,3.41,0,0,0,3.41-3.4V66.94a3.4,3.4,0,0,1,3.4-3.4H65a3.41,3.41,0,0,1,3.41,3.4v33.88a3.4,3.4,0,0,0,3.4,3.4h12a3.41,3.41,0,0,0,3.41-3.4V7a3.41,3.41,0,0,0-3.41-3.41h-12A3.41,3.41,0,0,0,68.43,7Z"/><rect x="532.15" y="3.59" width="18.98" height="33.76" rx="3.4"/><path d="M600.58,7V42.61a3.4,3.4,0,0,1-3.4,3.39H535.54a3.39,3.39,0,0,0-3.39,3.39v51.43a3.4,3.4,0,0,0,3.39,3.4h12.19a3.4,3.4,0,0,0,3.4-3.4V66.93a3.39,3.39,0,0,1,3.39-3.39h42.66a3.4,3.4,0,0,1,3.4,3.39v33.89a3.4,3.4,0,0,0,3.39,3.4h12a3.4,3.4,0,0,0,3.4-3.4V7a3.4,3.4,0,0,0-3.4-3.4H604A3.4,3.4,0,0,0,600.58,7Z"/><rect x="753.95" y="3.59" width="18.98" height="33.76" rx="3.4"/><path d="M822.38,7V42.6A3.41,3.41,0,0,1,819,46H757.35a3.4,3.4,0,0,0-3.4,3.4v51.42a3.4,3.4,0,0,0,3.4,3.4h12.17a3.41,3.41,0,0,0,3.41-3.4V66.94a3.4,3.4,0,0,1,3.4-3.4H819a3.41,3.41,0,0,1,3.41,3.4v33.88a3.4,3.4,0,0,0,3.4,3.4h12a3.41,3.41,0,0,0,3.41-3.4V7a3.41,3.41,0,0,0-3.41-3.41h-12A3.41,3.41,0,0,0,822.38,7Z"/><path d="M167,3.45h-16.3a3.4,3.4,0,0,0-3.1,2L105.5,99.28a3.41,3.41,0,0,0,3.11,4.8h13.11a3.4,3.4,0,0,0,3.1-2l1.84-4h0L145.15,56h0l10.57-24.23a3.4,3.4,0,0,1,6.24,0l13.49,30.93a3.4,3.4,0,0,1-3.11,4.76H151.58a3.41,3.41,0,0,0-3.11,2l-4.78,10.88a3.4,3.4,0,0,0,3.11,4.77h36.14a3.42,3.42,0,0,1,3.11,2l6.68,15a3.4,3.4,0,0,0,3.11,2h13.24a3.41,3.41,0,0,0,3.1-4.8L170.09,5.46A3.39,3.39,0,0,0,167,3.45Z"/><path d="M386.92,3.45H370.63a3.42,3.42,0,0,0-3.11,2L325.44,99.28a3.4,3.4,0,0,0,3.1,4.8h13.11a3.42,3.42,0,0,0,3.1-2l1.86-4.1L365,56.15l10.65-24.42a3.41,3.41,0,0,1,6.24,0l13.49,30.92a3.41,3.41,0,0,1-3.12,4.77H371.52a3.41,3.41,0,0,0-3.12,2l-4.78,10.88a3.4,3.4,0,0,0,3.12,4.77h36.13a3.41,3.41,0,0,1,3.11,2l6.68,14.94a3.41,3.41,0,0,0,3.11,2H429a3.41,3.41,0,0,0,3.11-4.8L390,5.46A3.42,3.42,0,0,0,386.92,3.45Z"/><path d="M920.94,3.45h-16.3a3.4,3.4,0,0,0-3.1,2L859.45,99.29a3.4,3.4,0,0,0,3.1,4.79h13.12a3.39,3.39,0,0,0,3.09-2l1.87-4.1L899,56.15l10.65-24.43a3.41,3.41,0,0,1,6.24,0L929.4,62.66a3.4,3.4,0,0,1-3.11,4.76H905.53a3.4,3.4,0,0,0-3.11,2l-4.78,10.88a3.4,3.4,0,0,0,3.11,4.77h36.14a3.42,3.42,0,0,1,3.11,2l6.68,15a3.4,3.4,0,0,0,3.1,2H963a3.4,3.4,0,0,0,3.1-4.79L924,5.46A3.4,3.4,0,0,0,920.94,3.45Z"/><path d="M1047.82,72.54a3.41,3.41,0,0,1,1.45-5.48c15.17-5.16,20.35-17.77,20.35-30.26,0-17.39-12.51-33.21-36.22-33.35-14.83,0-29.65-.12-44.46-.14a3.4,3.4,0,0,0-3.42,3.41v11a3.41,3.41,0,0,0,3.41,3.4h44.47c11.92,0,17.24,8.05,17.24,16.1s-5.17,16.1-17.24,16.1H988.93a3.41,3.41,0,0,0-3.41,3.41v43.93a3.41,3.41,0,0,0,3.41,3.41h12.16a3.41,3.41,0,0,0,3.41-3.41V73.84a3.4,3.4,0,0,1,3.4-3.4h13.31a3.36,3.36,0,0,1,2.56,1.17l27.29,31.3a3.43,3.43,0,0,0,2.57,1.17h21a3.35,3.35,0,0,0-.86-2.26Z"/></g></g></svg>