<svg xmlns="http://www.w3.org/2000/svg" viewBox="0 0 1499 1499"><defs><style>.cls-1{fill:none;}</style></defs><g id="Layer_2" data-name="Layer 2"><g id="Layer_1-2" data-name="Layer 1"><rect class="cls-1" width="1499" height="1499" rx="472.96"/><rect x="316.78" y="250.49" width="188.21" height="334.85" rx="33.68"/><path d="M995.45,284.24v353.1A33.76,33.76,0,0,1,961.7,671.1H505v0H350.54a33.76,33.76,0,0,0-33.76,33.76v509.92a33.76,33.76,0,0,0,33.76,33.75H471.23A33.75,33.75,0,0,0,505,1214.76v-336A33.75,33.75,0,0,1,538.74,845h423a33.75,33.75,0,0,1,33.75,33.75v336a33.75,33.75,0,0,0,33.76,33.75h119.25a33.76,33.76,0,0,0,33.76-33.75V284.24a33.76,33.76,0,0,0-33.76-33.75H1029.21A33.75,33.75,0,0,0,995.45,284.24Z"/></g></g></svg>