<?xml version="1.0" standalone="no"?>
<!DOCTYPE svg PUBLIC "-//W3C//DTD SVG 20010904//EN"
 "http://www.w3.org/TR/2001/REC-SVG-20010904/DTD/svg10.dtd">
<svg version="1.0" xmlns="http://www.w3.org/2000/svg"
 width="700.000000pt" height="700.000000pt" viewBox="0 0 700.000000 700.000000"
 preserveAspectRatio="xMidYMid meet">
<metadata>
Created by potrace 1.14, written by Peter Selinger 2001-2017
</metadata>
<g transform="translate(0.000000,700.000000) scale(0.100000,-0.100000)"
fill="#000000" stroke="none">
<path d="M1559 5807 c-18 -12 -44 -38 -56 -56 l-23 -34 0 -436 c-1 -906 -1
-889 20 -931 10 -21 36 -48 57 -60 37 -23 43 -23 355 -23 356 -1 371 2 418 70
l25 37 0 676 0 677 -29 37 c-49 65 -58 66 -414 66 -315 0 -319 0 -353 -23z"/>
<path d="M4734 5810 c-25 -13 -49 -35 -62 -59 -21 -38 -21 -39 -24 -908 l-3
-869 -24 -36 c-14 -19 -40 -44 -59 -54 -32 -17 -99 -18 -1500 -19 -1632 -1
-1502 5 -1554 -67 l-23 -33 -5 -1055 c-3 -580 -3 -1141 0 -1247 5 -209 8 -218
74 -267 26 -20 40 -21 365 -21 l338 0 36 28 c68 51 65 9 65 910 1 745 2 819
18 852 17 37 52 67 94 80 33 11 2004 13 2055 2 46 -9 91 -48 111 -94 12 -27
14 -178 14 -848 l0 -816 23 -40 c14 -25 37 -47 63 -59 38 -19 61 -20 353 -20
333 0 341 1 388 52 12 12 27 36 33 52 16 43 16 4409 0 4451 -6 17 -21 41 -33
53 -47 51 -54 52 -389 52 -294 0 -316 -1 -354 -20z"/>
</g>
</svg>
